<?xml version="1.0" standalone="no"?>
<!DOCTYPE svg PUBLIC "-//W3C//DTD SVG 20010904//EN"
 "http://www.w3.org/TR/2001/REC-SVG-20010904/DTD/svg10.dtd">
<svg version="1.0" xmlns="http://www.w3.org/2000/svg"
 width="225.000000pt" height="225.000000pt" viewBox="0 0 225.000000 225.000000"
 preserveAspectRatio="xMidYMid meet">
<metadata>
Created by potrace 1.11, written by Peter Selinger 2001-2013
</metadata>
<g transform="translate(0.000000,225.000000) scale(0.100000,-0.100000)"
fill="#000000" stroke="none">
<path d="M167 1678 c-29 -45 -117 -202 -117 -209 0 -15 214 -183 348 -272 129
-87 170 -96 358 -82 l102 8 118 -57 119 -57 -70 -41 c-173 -101 -382 -208
-406 -208 -21 0 -42 17 -89 70 -53 59 -90 86 -90 65 0 -3 55 -100 122 -216 87
-150 124 -207 132 -199 8 8 4 28 -13 73 -36 92 -38 137 -9 164 43 40 442 274
458 268 29 -12 385 -228 423 -257 45 -36 47 -55 10 -160 -20 -55 -25 -80 -17
-88 8 -8 44 48 130 196 138 239 130 224 111 224 -8 0 -43 -31 -77 -70 -45 -50
-69 -70 -86 -70 -32 0 -266 121 -443 228 l-34 21 114 56 114 57 105 -7 c145
-10 184 -7 242 16 77 30 287 178 432 303 l40 34 -66 114 c-79 136 -65 133
-259 55 -324 -130 -410 -195 -460 -344 -12 -38 -36 -82 -56 -104 -36 -40 -212
-159 -235 -159 -19 0 -176 105 -220 148 -25 24 -47 60 -64 106 -34 89 -74 149
-127 188 -74 54 -404 202 -496 223 -24 5 -32 2 -44 -17z"/>
</g>
</svg>
